<svg xmlns="http://www.w3.org/2000/svg" width="24" height="24" style=""><rect id="backgroundrect" width="100%" height="100%" x="0" y="0" fill="none" stroke="none"/><g class="currentLayer" style=""><title>Layer 1</title><path d="M11.501,4.025 v-4.025 h1 v4.025 l-0.5,-0.025000000000000005 l-0.5,0.025000000000000005 zm-7.079,5.428 l-3.8840000000000003,-1.041 l-0.26,0.9660000000000001 l3.8810000000000002,1.04 c0.06700000000000002,-0.33100000000000007 0.15700000000000003,-0.6510000000000001 0.263,-0.9650000000000001 zm5.995,-5.295 l-1.039,-3.878 l-0.9670000000000001,0.259 l1.041,3.883 c0.31500000000000006,-0.10600000000000001 0.6350000000000001,-0.19700000000000004 0.9650000000000001,-0.264 zm-6.416,7.8420000000000005 l0.025000000000000005,-0.49900000000000005 h-4.026 v1 h4.026 l-0.025000000000000005,-0.501 zm2.713,-5.993 l-2.846,-2.845 l-0.7070000000000001,0.7070000000000001 l2.846,2.846 c0.22100000000000003,-0.251 0.457,-0.48700000000000004 0.7070000000000001,-0.7080000000000001 zm-1.377,1.569 l-3.48,-2.009 l-0.5,0.8660000000000001 l3.484,2.012 c0.15000000000000002,-0.29900000000000004 0.31200000000000006,-0.5910000000000001 0.49600000000000005,-0.8690000000000001 zm13.696,0.6070000000000001 l3.465,-2 l-0.20700000000000002,-0.36000000000000004 l-3.474,2.005 l0.21600000000000003,0.35500000000000004 zm0.7510000000000001,1.9929999999999999 l3.873,-1.038 l-0.129,-0.48300000000000004 l-3.869,1.037 l0.125,0.48400000000000004 zm-3.677,-5.032 l2.005,-3.472 l-0.21700000000000003,-0.125 l-2.002,3.467 l0.21400000000000002,0.13 zm-1.955,-0.8430000000000001 l1.037,-3.871 l-0.16000000000000003,-0.04300000000000001 l-1.038,3.873 l0.16100000000000003,0.04100000000000001 zm3.619,2.168 l2.835,-2.834 l-0.23600000000000002,-0.23600000000000002 l-2.834,2.833 l0.23500000000000001,0.23700000000000002 zm-9.327,-1.6270000000000002 l-2.011,-3.484 l-0.8650000000000001,0.5 l2.009,3.479 c0.276,-0.18400000000000002 0.5680000000000001,-0.3460000000000001 0.8670000000000001,-0.49500000000000005 zm-4.285,8.743 l-3.88,1.04 l0.26,0.9660000000000001 l3.8840000000000003,-1.041 c-0.10600000000000001,-0.31400000000000006 -0.19700000000000004,-0.6340000000000001 -0.264,-0.9650000000000001 zm11.435,5.556 l2.01,3.481 l0.793,-0.458 l-2.008,-3.478 c-0.255,0.16700000000000004 -0.522,0.31600000000000006 -0.795,0.455 zm3.135,-2.823 l3.477,2.007 l0.37500000000000006,-0.6490000000000001 l-3.476,-2.007 c-0.11600000000000002,0.22400000000000003 -0.24200000000000002,0.43900000000000006 -0.37600000000000006,0.6490000000000001 zm-1.3800000000000001,1.62 l2.842,2.842 l0.5900000000000001,-0.5890000000000001 l-2.843,-2.842 c-0.18700000000000003,0.20700000000000002 -0.38300000000000006,0.403 -0.5890000000000001,0.5890000000000001 zm2.2880000000000003,-3.5460000000000003 l3.869,1.037 l0.17200000000000001,-0.6440000000000001 l-3.874,-1.038 c-0.04900000000000001,0.21800000000000003 -0.10200000000000001,0.43400000000000005 -0.16700000000000004,0.6450000000000001 zm0.3490000000000001,-2.6820000000000004 l0.015000000000000003,0.29000000000000004 l-0.015000000000000003,0.29300000000000004 h4.014 v-0.5830000000000001 h-4.014 zm-6.402,8.132 l1.039,3.879 l0.9670000000000001,-0.259 l-1.041,-3.8840000000000003 c-0.31500000000000006,0.10600000000000001 -0.6350000000000001,0.19700000000000004 -0.9650000000000001,0.264 zm-1.5830000000000002,0.15800000000000003 l-0.5,-0.025000000000000005 v4.025 h1 v-4.025 l-0.5,0.025000000000000005 zm-5.992,-2.712 l-2.847,2.846 l0.7070000000000001,0.7070000000000001 l2.847,-2.847 c-0.25,-0.22000000000000003 -0.48700000000000004,-0.456 -0.7070000000000001,-0.7060000000000001 zm-1.165,-1.73 l-3.485,2.012 l0.5,0.8660000000000001 l3.48,-2.009 c-0.18500000000000003,-0.278 -0.3470000000000001,-0.5700000000000001 -0.49500000000000005,-0.8690000000000001 zm2.734,3.106 l-2.01,3.481 l0.8650000000000001,0.5 l2.013,-3.486 c-0.29900000000000004,-0.14900000000000002 -0.5910000000000001,-0.31100000000000005 -0.8680000000000001,-0.49500000000000005 zm1.8760000000000001,0.915 l-1.042,3.886 l0.9670000000000001,0.259 l1.04,-3.8810000000000002 c-0.33000000000000007,-0.06700000000000002 -0.6500000000000001,-0.15800000000000003 -0.9650000000000001,-0.264 z" id="svg_1" class="selected" fill="#d50b0b" fill-opacity="1"/></g></svg>